<svg width="42" height="42" fill="none" xmlns="http://www.w3.org/2000/svg"><g clip-path="url(#clip0_88_684)"><path d="M12.608 27.654H35.75a4.774 4.774 0 004.765-4.765v-9.841c0-.017 0-.034-.008-.051 0-.017-.009-.043-.009-.06 0-.018-.009-.035-.009-.052-.008-.018-.008-.035-.017-.06-.009-.018-.009-.035-.017-.052-.009-.018-.009-.035-.017-.052a.308.308 0 01-.026-.06.231.231 0 00-.026-.044 12.5 12.5 0 01-.026-.052c-.009-.017-.017-.026-.026-.043-.009-.017-.026-.034-.035-.052a.15.15 0 00-.034-.043c-.009-.017-.026-.026-.035-.043-.008-.017-.025-.026-.034-.043-.009-.017-.026-.026-.035-.035l-.043-.043c-.017-.008-.026-.026-.043-.034-.017-.009-.035-.026-.052-.035-.017-.009-.026-.017-.043-.026a.185.185 0 01-.052-.034l-.051-.026-.052-.026a12.5 12.5 0 01-.052-.026c-.017-.009-.035-.009-.052-.017a.16.16 0 00-.06-.018c-.018 0-.035-.008-.044-.008-.025-.009-.043-.009-.069-.009-.008 0-.017-.008-.034-.008L10.183 7.947V3.856c0-.043 0-.087-.009-.121 0-.009 0-.017-.008-.035 0-.026-.009-.051-.009-.077-.009-.026-.009-.043-.017-.07 0-.017-.009-.025-.009-.043l-.026-.077c0-.009-.008-.026-.008-.035a.256.256 0 00-.035-.069c-.009-.008-.009-.026-.017-.034a.179.179 0 00-.035-.052c-.008-.017-.017-.026-.026-.043-.008-.018-.017-.026-.026-.043-.008-.018-.025-.035-.034-.052a31.622 31.622 0 00-.026-.026l-.052-.052-.026-.026c-.017-.017-.034-.034-.06-.052-.009-.008-.026-.017-.035-.025-.017-.018-.034-.026-.051-.044a.795.795 0 00-.07-.043c-.008-.008-.017-.008-.025-.017l-.113-.052L3.105.092a1.164 1.164 0 00-1.528.622c-.25.595.026 1.277.621 1.528l5.646 2.382v25.533a4.77 4.77 0 004.151 4.722 4.709 4.709 0 00-.673 2.417A4.71 4.71 0 0016.027 42a4.715 4.715 0 004.704-4.704c0-.864-.233-1.684-.647-2.374h10.479a4.63 4.63 0 00-.648 2.374A4.71 4.71 0 0034.62 42a4.715 4.715 0 004.704-4.704 4.715 4.715 0 00-4.704-4.705H12.608a2.437 2.437 0 01-2.434-2.434v-3.16a4.82 4.82 0 002.434.657zm5.801 9.633a2.378 2.378 0 01-2.374 2.374 2.383 2.383 0 01-2.373-2.374 2.384 2.384 0 012.373-2.374 2.378 2.378 0 012.374 2.374zm18.593 0a2.378 2.378 0 01-2.374 2.374 2.384 2.384 0 01-2.373-2.374 2.384 2.384 0 012.373-2.374 2.378 2.378 0 012.374 2.374zM35.75 25.323H12.608a2.437 2.437 0 01-2.434-2.434V10.295l28.01 3.859v8.726a2.439 2.439 0 01-2.434 2.443z" fill="#595959"/></g><defs><clipPath id="clip0_88_684"><path fill="#fff" d="M0 0h42v42H0z"/></clipPath></defs></svg>