<svg width="27" height="26" fill="none" xmlns="http://www.w3.org/2000/svg"><path d="M25.865 9.177c0-2.442-.993-4.744-2.798-6.482A9.649 9.649 0 0016.336 0H10.69a9.649 9.649 0 00-6.731 2.695C2.154 4.433 1.16 6.735 1.16 9.177v4.274c0 1.89.6 3.71 1.733 5.26a9.491 9.491 0 003.912 3.114v2.455c0 1.27.738 1.72 1.37 1.72.452 0 .903-.215 1.343-.638l2.84-2.735h3.978a9.65 9.65 0 006.731-2.695c1.805-1.738 2.799-4.04 2.799-6.481V9.177zm-9.529 11.927H12.03c-.21 0-.41.08-.559.223L8.4 24.285a.263.263 0 01-.012.011v-2.979a.763.763 0 00-.509-.712c-3.072-1.129-5.136-4.004-5.136-7.155V9.178c0-2.035.83-3.955 2.336-5.405a8.046 8.046 0 015.612-2.249h5.646c2.113 0 4.106.799 5.612 2.25 1.506 1.45 2.336 3.369 2.335 5.404v4.274c0 4.22-3.565 7.653-7.947 7.653z" fill="#6E6E6E"/><path d="M15.616 12.458a.812.812 0 00-1.118 0l-.64.615-2.475-2.384.639-.615a.748.748 0 00.232-.539.748.748 0 00-.232-.538L9.026 6.112a.807.807 0 00-.559-.223c-.21 0-.411.08-.56.223l-2.096 2.02a2.732 2.732 0 000 3.961l6.59 6.347a2.947 2.947 0 002.057.817c.778 0 1.51-.29 2.057-.817l2.097-2.02a.748.748 0 00.232-.538.748.748 0 00-.232-.539l-2.996-2.885zm-.22 4.904c-.249.24-.582.372-.938.372s-.69-.132-.939-.372l-6.59-6.346a1.246 1.246 0 010-1.807l1.538-1.481 1.877 1.807-.64.616a.748.748 0 00-.231.538c0 .202.083.396.232.539l3.594 3.461a.813.813 0 001.12 0l.638-.615 1.877 1.808-1.538 1.48zM13.705 3.37c-.437 0-.791.34-.791.761 0 .42.354.762.79.762 1.811 0 3.513.679 4.793 1.912 1.28 1.232 1.985 2.871 1.985 4.615 0 .42.355.761.791.761.437 0 .791-.34.791-.761 0-2.15-.87-4.172-2.448-5.693-1.579-1.52-3.678-2.357-5.911-2.357z" fill="#6E6E6E"/><path d="M17.093 11.42c0 .42.355.761.791.761.437 0 .791-.341.791-.762 0-2.639-2.23-4.786-4.97-4.786-.437 0-.791.341-.791.762 0 .42.354.761.79.761 1.87 0 3.39 1.464 3.39 3.263z" fill="#6E6E6E"/></svg>