<svg width="51" height="51" fill="none" xmlns="http://www.w3.org/2000/svg"><g clip-path="url(#clip0_88_570)"><path d="M25.325 47.532l-1.185 1.186c-.527.526-.147 1.422.589 1.422a.83.83 0 00.59-.243l2.603-2.605a.833.833 0 000-1.178l-2.604-2.604a.833.833 0 00-1.178 1.178l1.177 1.177c-11.27-.187-20.38-9.411-20.38-20.725 0-4.674 1.519-9.087 4.392-12.76a.833.833 0 10-1.313-1.027c-3.104 3.97-4.745 8.737-4.745 13.787 0 12.265 9.832 22.21 22.054 22.392zm-14.583-37.12c-.746 0-1.12-.917-.576-1.437a.833.833 0 011.196.006c.528.549.095 1.43-.62 1.43zM30.25 30.035h2.5a.833.833 0 010 1.667h-2.5a.833.833 0 010-1.667zm-13.854 6.042c0-.46.373-.833.833-.833h16.875a1.67 1.67 0 001.667-1.667V16.703a1.67 1.67 0 00-1.667-1.667h-4.27v5.834a.834.834 0 01-1.225.736l-2.943-1.564-2.942 1.563a.834.834 0 01-1.224-.735v-2.917a.833.833 0 011.666 0v1.53l2.11-1.12a.833.833 0 01.782 0l2.108 1.12v-4.447H17.23a1.67 1.67 0 00-1.667 1.667v14.792a.833.833 0 01-1.666 0V16.703a3.337 3.337 0 013.333-3.333h16.875a3.337 3.337 0 013.333 3.333v16.875a3.337 3.337 0 01-3.333 3.333H17.229a.833.833 0 01-.833-.833zm30-10.938c0-11.313-9.11-20.537-20.38-20.724l1.177 1.177c.527.526.147 1.423-.59 1.423a.83.83 0 01-.588-.245L23.41 4.167a.833.833 0 010-1.178L26.015.385a.833.833 0 111.178 1.178L26.007 2.75c12.214.181 22.055 10.119 22.055 22.391 0 5.051-1.64 9.819-4.746 13.788a.833.833 0 11-1.312-1.027c2.873-3.673 4.392-8.086 4.392-12.76zm-5.202 14.988c.3.313.331.835-.045 1.195a.833.833 0 11-1.156-1.201.834.834 0 011.2.006z" fill="#404040"/></g><defs><clipPath id="clip0_88_570"><path fill="#fff" transform="matrix(-1 0 0 1 50.666 .14)" d="M0 0h50v50H0z"/></clipPath></defs></svg>