<svg width="49" height="50" fill="none" xmlns="http://www.w3.org/2000/svg"><g clip-path="url(#clip0_88_559)" fill="#404040"><path d="M24.5.151C10.97.151 0 11.121 0 24.651c0 13.531 10.97 24.5 24.5 24.5S49 38.182 49 24.651C48.985 11.127 38.024.167 24.5.151zm0 47.367c-12.629 0-22.867-10.238-22.867-22.867 0-12.628 10.238-22.866 22.867-22.866 12.629 0 22.867 10.238 22.867 22.866-.015 12.623-10.244 22.853-22.867 22.867z"/><path d="M13.142 23.1a.817.817 0 00.966-.632c.102-.485.239-.96.408-1.425a.817.817 0 10-1.535-.557 12.204 12.204 0 00-.468 1.646.817.817 0 00.629.967zm2.09-4.329a.816.816 0 00.663-.337c.29-.4.608-.78.95-1.138a.817.817 0 00-1.178-1.13c-.395.409-.76.845-1.094 1.306a.816.816 0 00.66 1.296v.003zm3.525-3.191a.811.811 0 00.408-.11c.426-.25.869-.468 1.326-.654a.817.817 0 10-.616-1.514c-.527.215-1.04.467-1.533.754a.817.817 0 00.409 1.523l.006.002zm17.513 5.712c-.004-.022 0-.042-.005-.063-.015-.052-.035-.104-.05-.156-.016-.052-.04-.117-.059-.176-.099-.305-.21-.607-.332-.906l-.066-.164c-.03-.068-.053-.137-.082-.204a.692.692 0 00-.047-.064c-.456-1-1.044-1.934-1.75-2.777-.01-.013-.012-.03-.023-.042a12.381 12.381 0 00-1.19-1.221.858.858 0 00-.081-.048 12.258 12.258 0 00-2.68-1.796.599.599 0 00-.07-.053c-.157-.076-.318-.143-.48-.212-.046-.02-.091-.042-.139-.062-.32-.133-.64-.257-.969-.362h-.025a12.208 12.208 0 00-3.26-.558c-.024 0-.046-.016-.07-.017h-.253c-.047 0-.092-.007-.138-.007-.013 0-.024.007-.037.007-.427 0-.854.02-1.279.063a.816.816 0 00.17 1.624c.416-.043.836-.06 1.255-.055a10.53 10.53 0 013.985.816l.089.04a10.647 10.647 0 013.084 2.034c.22.208.43.425.63.654a10.62 10.62 0 011.861 2.891c.018.041.034.082.05.124.11.26.207.526.293.797.017.051.035.102.05.152.308 1.005.465 2.05.465 3.1 0 .327-.02.649-.05.967a10.605 10.605 0 01-3.794 7.2l-.043.037a10.601 10.601 0 01-3.545 1.923c-.037.012-.075.021-.112.032a10.88 10.88 0 01-.817.212l-.202.043c-5.668 1.123-11.191-2.503-12.413-8.15l1.827.921a.817.817 0 10.73-1.461l-3.267-1.634a.806.806 0 00-.356-.082.215.215 0 00-.036-.008.732.732 0 00-.07.02.803.803 0 00-.634.429L10.7 28.366a.817.817 0 101.462.73l.558-1.115c.232.82.55 1.615.95 2.368a.64.64 0 00.021.067c.269.504.572.987.908 1.447.02.028.053.04.076.064A12.393 12.393 0 0016.88 34.2a.77.77 0 00.095.11c.448.352.92.672 1.414.958a.8.8 0 00.193.082c.912.508 1.886.897 2.896 1.159a.732.732 0 00.074.035c.554.137 1.116.235 1.684.293h.081c.391.04.787.061 1.187.061.665-.004 1.33-.063 1.985-.176h.01a.744.744 0 00.143-.012c.071-.013.14-.032.211-.046.091-.017.18-.037.27-.056.31-.067.614-.146.915-.236.048-.014.096-.026.142-.04.047-.015.082-.023.12-.035.018-.006.03-.02.048-.028a12.21 12.21 0 002.978-1.453c.011-.008.023-.01.035-.017.313-.211.613-.444.907-.685l.056-.047c.128-.106.258-.21.38-.32a.705.705 0 00.06-.081 12.327 12.327 0 002.05-2.43.855.855 0 00.082-.101c.302-.483.57-.987.802-1.508.008-.018.006-.037.012-.054.44-1.002.742-2.06.899-3.142a.766.766 0 00.026-.082c.014-.099.02-.199.032-.299a13.701 13.701 0 00.087-1.404v-.063a12.209 12.209 0 00-.483-3.291z"/><path d="M24.5 17.301a.817.817 0 00-.817.817v6.533c0 .217.086.425.24.578l3.266 3.266a.817.817 0 001.155-1.155l-3.027-3.027v-6.195a.817.817 0 00-.817-.817z"/></g><defs><clipPath id="clip0_88_559"><path fill="#fff" transform="translate(0 .151)" d="M0 0h49v49H0z"/></clipPath></defs></svg>