<svg width="25" height="24" fill="none" xmlns="http://www.w3.org/2000/svg"><path d="M12.5 0C9.055 0 6.25 2.691 6.25 6s2.804 6 6.25 6c3.448 0 6.25-2.691 6.25-6s-2.802-6-6.25-6zm0 10.5c-2.584 0-4.687-2.019-4.687-4.5s2.103-4.5 4.688-4.5c2.584 0 4.687 2.019 4.687 4.5s-2.103 4.5-4.687 4.5zm6.11 12.32l-5.469-7.5c-.29-.4-.986-.4-1.28 0l-5.468 7.5a.73.73 0 00.192 1.043.8.8 0 001.088-.183l4.828-6.622 4.83 6.622a.805.805 0 001.089.183.73.73 0 00.19-1.044z" fill="#6E6E6E"/><path d="M20.233 12.363a.805.805 0 00-1.104 0c-3.658 3.51-9.603 3.51-13.258 0a.805.805 0 00-1.105 0 .73.73 0 000 1.06c2.133 2.046 4.935 3.07 7.735 3.07 2.8 0 5.601-1.024 7.732-3.07a.73.73 0 000-1.06z" fill="#6E6E6E"/></svg>