<svg width="26" height="27" fill="none" xmlns="http://www.w3.org/2000/svg"><g clip-path="url(#clip0_88_640)"><path d="M25.599 2.682c-.318-.403-.794-.625-1.34-.625-.297 0-.612.065-.935.193L1.316 10.974C.148 11.437-.01 12.132 0 12.504c.01.373.205 1.058 1.397 1.452l.021.006 4.565 1.357 2.47 7.331c.336 1 1.091 1.62 1.971 1.62.555 0 1.1-.241 1.579-.697l2.823-2.7 4.096 3.424.001.001.04.033.01.009c.455.366.952.56 1.438.56.948 0 1.703-.729 1.923-1.857l3.607-18.49c.144-.743.023-1.407-.342-1.871zM7.51 15.061l8.807-4.672-5.484 6.05a.8.8 0 00-.185.353l-1.057 4.449-2.081-6.18zm3.46 7.348a1.475 1.475 0 01-.11.094l.98-4.126 1.785 1.492-2.655 2.54zm13.476-18.17l-3.606 18.49c-.034.177-.145.589-.43.589-.141 0-.318-.08-.5-.225l-4.64-3.88-.002-.002-2.762-2.309 7.931-8.751a.814.814 0 00.055-1.017.744.744 0 00-.956-.23l-13.044 6.92-4.627-1.374 22.001-8.722c.186-.074.316-.09.392-.09.047 0 .13.006.16.046.04.051.092.226.028.554z" fill="#6E6E6E"/></g><defs><clipPath id="clip0_88_640"><path fill="#fff" d="M0 0h26v27H0z"/></clipPath></defs></svg>