<svg width="46" height="46" fill="none" xmlns="http://www.w3.org/2000/svg"><path d="M39.93 14.551a3.182 3.182 0 00-3.513-3.515A3.19 3.19 0 0032.9 7.519a3.187 3.187 0 00-5.424-2.601l-2.405 2.405c-.358-.477-.75-.929-1.17-1.35L21.087 3.16a5.675 5.675 0 00-8.026 0 .702.702 0 000 .994l1.02 1.02a10.544 10.544 0 012.71 10.207 11.93 11.93 0 00-.42 3.138v4.534l-1.406 1.406-.206-.206a.703.703 0 00-.995 0L11.45 26.57l-.206-.206a.703.703 0 00-.994 0L1.812 34.8l.995.995 7.94-7.94 11.662 11.661-3.019 3.019.995.994 3.515-3.516a.703.703 0 000-.994l-.909-.909 2.316-2.315a.702.702 0 000-.995l-1.613-1.612 1.407-1.406h5.333a.704.704 0 00.498-.206l7.03-7.031-.027-.028a3.19 3.19 0 00.38-.324l4.218-4.219a3.188 3.188 0 00-2.602-5.423zm-3.167-2.13a1.782 1.782 0 011.26 3.043l-4.219 4.22a1.783 1.783 0 01-2.52-2.522l4.218-4.219a1.778 1.778 0 011.26-.521zm-2.255-2.993a1.785 1.785 0 010 2.52l-4.22 4.22a1.783 1.783 0 11-2.52-2.522l4.218-4.219a1.785 1.785 0 012.521 0zM28.47 5.912a1.783 1.783 0 012.52 2.521l-4.218 4.219a1.784 1.784 0 01-3.043-1.26 1.783 1.783 0 01.522-1.261l4.219-4.22zm-6.474 31.204l-9.553-9.553 1.818-1.818 9.553 9.552-1.818 1.819zm8.146-6.74H24.81a.702.702 0 00-.497.206L22.7 32.194l-6.74-6.74 1.612-1.612a.702.702 0 00.206-.498V18.52c0-.935.125-1.866.37-2.768A11.955 11.955 0 0015.077 4.18l-.481-.481a4.276 4.276 0 015.498.456l2.813 2.813c.422.422.81.877 1.16 1.36l-.808.81a3.187 3.187 0 002.6 5.422 3.172 3.172 0 00.357 1.854v.553a11.226 11.226 0 01-3.309 7.99l.994.995a12.612 12.612 0 003.697-8.194 3.173 3.173 0 001.779.32 3.183 3.183 0 003.515 3.513 3.183 3.183 0 002.56 3.478l-5.308 5.308zM41.54 18.98l-4.219 4.219a1.783 1.783 0 01-2.521-2.522l4.218-4.218a1.783 1.783 0 012.522 2.521zm.144 16.317a3.52 3.52 0 01-3.515-3.515.703.703 0 00-1.406 0 3.52 3.52 0 01-3.516 3.515.703.703 0 100 1.407 3.52 3.52 0 013.516 3.515.703.703 0 101.406 0 3.52 3.52 0 013.515-3.515.703.703 0 000-1.407zm-4.218 2.39A4.96 4.96 0 0035.78 36a4.96 4.96 0 001.686-1.686A4.97 4.97 0 0039.151 36a4.957 4.957 0 00-1.685 1.685zM43.09 5.063a2.816 2.816 0 01-2.812-2.813.703.703 0 10-1.406 0 2.816 2.816 0 01-2.813 2.813.703.703 0 000 1.406 2.816 2.816 0 012.813 2.813.703.703 0 001.406 0 2.816 2.816 0 012.813-2.813.703.703 0 100-1.406zm-3.515 1.889a4.254 4.254 0 00-1.186-1.186c.47-.313.873-.716 1.186-1.186.313.47.716.873 1.186 1.186-.47.313-.873.716-1.186 1.186z" fill="#404040"/><path d="M5.825 19.125a.703.703 0 001.406 0 3.52 3.52 0 013.516-3.515.703.703 0 000-1.406 3.52 3.52 0 01-3.516-3.516.703.703 0 00-1.406 0 3.52 3.52 0 01-3.516 3.516.703.703 0 000 1.406 3.52 3.52 0 013.516 3.515zm.703-5.904a4.96 4.96 0 001.686 1.686c-.69.416-1.27.995-1.686 1.686a4.962 4.962 0 00-1.686-1.686 4.96 4.96 0 001.686-1.686z" fill="#404040"/></svg>