<svg width="46" height="46" fill="none" xmlns="http://www.w3.org/2000/svg"><g clip-path="url(#clip0_88_575)" fill="#404040"><path d="M39.25 36.327a2.33 2.33 0 00-2.327 2.327 2.33 2.33 0 002.327 2.327 2.33 2.33 0 002.327-2.327 2.33 2.33 0 00-2.327-2.327zm0 3.275a.949.949 0 010-1.896.949.949 0 010 1.896z"/><path d="M45.519 38.533a6.1 6.1 0 00-2.03-4.412l-13.883-12.52L41.881 9.325c.08-.024.16-.054.237-.095l2.658-1.403c.367-.194.613-.54.675-.951a1.28 1.28 0 00-.364-1.109l-2.993-2.992a1.282 1.282 0 00-1.108-.365 1.28 1.28 0 00-.951.676l-1.403 2.658a1.3 1.3 0 00-.097.239l-5.794 5.794a.69.69 0 00.975.975l5.317-5.317 1.393 1.393L26.83 22.426l-1.394-1.393 5.935-5.935a.69.69 0 00-.975-.975l-4.306 4.306-4.687-4.227A10.58 10.58 0 0018.888 3.24 10.603 10.603 0 007.603.843a.69.69 0 00-.24 1.131l5.413 5.414a.846.846 0 010 1.2L9.26 12.102a.842.842 0 01-.6.248.842.842 0 01-.599-.248L2.649 6.689a.69.69 0 00-1.132.24 10.603 10.603 0 002.397 11.284A10.619 10.619 0 0014.663 20.8l3.623 3.962c-.174.34-.4.658-.68.937a3.732 3.732 0 01-3.988.838.69.69 0 00-.737.155l-8.443 8.443a5.869 5.869 0 000 8.29 5.823 5.823 0 004.145 1.717c1.566 0 3.038-.61 4.145-1.717l8.443-8.442a.69.69 0 00.155-.738 3.732 3.732 0 01.838-3.988 3.732 3.732 0 013.99-.839.69.69 0 00.736-.155l1.593-1.592c.48-.48.744-1.118.744-1.796 0-.678-.265-1.315-.744-1.795l-.678-.678.825-.824 13.935 12.569a4.732 4.732 0 011.575 3.423 4.732 4.732 0 01-1.397 3.5 4.742 4.742 0 01-3.483 1.398 4.734 4.734 0 01-3.418-1.552L25.48 30.585a.69.69 0 10-1.018.93l10.361 11.33a6.102 6.102 0 004.547 2.002 6.099 6.099 0 004.347-1.803 6.1 6.1 0 001.8-4.51zm-5.639-32.2l1.32-2.5 2.83 2.83-2.5 1.32-1.65-1.65zm-24.506 13.2a.69.69 0 00-.75-.18 9.236 9.236 0 01-9.735-2.114 9.224 9.224 0 01-2.415-8.773l4.613 4.612c.42.42.98.652 1.575.652a2.21 2.21 0 001.574-.652l3.516-3.516c.42-.42.652-.98.652-1.574 0-.595-.232-1.154-.652-1.575L9.14 1.8a9.222 9.222 0 018.772 2.415 9.204 9.204 0 012.041 9.93.69.69 0 00.179.767l4.981 4.493-.652.653-.678-.678a2.522 2.522 0 00-1.795-.744 2.52 2.52 0 00-1.795.744L18.6 20.972a.69.69 0 00-.155.737c.183.473.263.967.25 1.455l-3.32-3.63zm12.134 7.162l-1.29 1.29a5.112 5.112 0 00-5.029 1.296 5.112 5.112 0 00-1.295 5.028l-8.14 8.14a4.453 4.453 0 01-3.17 1.313 4.453 4.453 0 01-3.17-1.313 4.488 4.488 0 010-6.34l8.14-8.14a5.112 5.112 0 005.028-1.296 5.112 5.112 0 001.296-5.028l1.29-1.29a1.16 1.16 0 011.64 0l1.166 1.165 2.368 2.369 1.166 1.165a1.16 1.16 0 010 1.64z"/><path d="M14.935 30.573a.69.69 0 00-.975 0l-6.532 6.532a.69.69 0 10.975.975l6.532-6.532a.69.69 0 000-.975zm2.413 2.414a.69.69 0 00-.975 0l-6.532 6.531a.69.69 0 00.976.976l6.531-6.532a.69.69 0 000-.975z"/></g><defs><clipPath id="clip0_88_575"><path fill="#fff" transform="translate(.668 .141)" d="M0 0h45v45H0z"/></clipPath></defs></svg>