<svg width="27" height="27" fill="none" xmlns="http://www.w3.org/2000/svg"><g clip-path="url(#clip0_88_638)"><path d="M13.663 21.938c3.906 0 2.513-2.473 2.815-3.184-.005-.531-.01-1.042.009-1.353.247.07.831.366 2.037 1.538 1.862 1.88 2.338 2.998 3.842 2.998h2.769c.877 0 1.334-.363 1.562-.668.22-.294.437-.812.2-1.617-.617-1.94-4.22-5.29-4.443-5.642a3.2 3.2 0 01.116-.197h-.003c.712-.94 3.425-5.005 3.824-6.632a.022.022 0 00.003-.01c.216-.742.018-1.223-.187-1.495-.308-.408-.799-.614-1.462-.614h-2.768c-.927 0-1.63.467-1.986 1.319-.595 1.513-2.267 4.625-3.52 5.726a72.124 72.124 0 01.008-3.637c.04-1.727.171-3.408-1.621-3.408h-4.352c-1.122 0-2.197 1.227-1.034 2.683 1.018 1.275.366 1.986.585 5.526-.854-.917-2.376-3.394-3.451-6.558-.301-.856-.758-1.65-2.044-1.65H1.793C.671 5.064 0 5.677 0 6.702c0 2.301 5.095 15.236 13.663 15.236zM4.562 6.75c.244 0 .269 0 .45.514 1.101 3.244 3.572 8.043 5.376 8.043 1.356 0 1.356-1.39 1.356-1.913l-.001-4.164c-.075-1.378-.576-2.065-.906-2.481l3.947.005c.002.019-.023 4.606.01 5.718 0 1.578 1.254 2.483 3.21.503 2.065-2.33 3.492-5.813 3.55-5.955.084-.202.157-.271.423-.271h2.78c-.001.003-.001.007-.003.01-.253 1.181-2.751 4.946-3.587 6.114a.976.976 0 00-.038.057c-.368.6-.668 1.264.05 2.198h.001c.066.079.236.263.483.52.77.794 3.409 3.51 3.643 4.59-.155.024-.324.006-2.94.012-.557 0-.992-.832-2.654-2.509-1.494-1.453-2.463-2.047-3.347-2.047-1.714 0-1.59 1.392-1.573 3.075.005 1.824-.006 1.247.006 1.362-.1.04-.387.118-1.135.118-7.138 0-11.787-11.33-11.965-13.495.062-.006.913-.003 2.864-.004z" fill="#6E6E6E"/></g><defs><clipPath id="clip0_88_638"><path fill="#fff" d="M0 0h27v27H0z"/></clipPath></defs></svg>