<svg width="15" height="15" fill="none" xmlns="http://www.w3.org/2000/svg"><g clip-path="url(#clip0_88_308)"><path d="M14.409 5.076a1.013 1.013 0 00-.617-.33l-3.721-.514L8.599.714a1.01 1.01 0 00-1.865 0L5.26 4.232l-3.72.514a1.013 1.013 0 00-.535 1.76l2.803 2.5-.576 3.923a1 1 0 00.464 1.006.997.997 0 001.105-.02l2.864-1.948 2.864 1.95a1.011 1.011 0 001.569-.986l-.576-3.924 2.803-2.5a1.013 1.013 0 00.083-1.431zm-3.753 3.366a.5.5 0 00-.162.446l.6 4.2-3.145-2.14a.5.5 0 00-.562 0l-3.165 2.126.616-4.188a.5.5 0 00-.162-.444l-3-2.704 4.004-.553a.5.5 0 00.393-.302l1.6-3.79a.022.022 0 01.003.007L9.26 4.88a.5.5 0 00.392.303l4.01.577-3.005 2.682z" fill="#FFA800"/></g><defs><clipPath id="clip0_88_308"><path fill="#fff" transform="translate(.666 .092)" d="M0 0h14v14H0z"/></clipPath></defs></svg>