<svg width="26" height="26" fill="none" xmlns="http://www.w3.org/2000/svg"><g clip-path="url(#clip0_88_700)"><path d="M25.487 3.263c-.305-.374-.763-.58-1.288-.58-.286 0-.588.06-.899.18L2.138 10.94c-1.123.428-1.274 1.071-1.265 1.417.01.345.198.978 1.343 1.343l.02.006 4.39 1.256L9 21.752c.324.925 1.05 1.5 1.897 1.5.533 0 1.058-.224 1.517-.646l2.715-2.5 3.938 3.17.002.002.037.03a.75.75 0 01.01.008c.438.34.916.519 1.383.519.912 0 1.638-.675 1.85-1.72l3.467-17.12c.14-.688.022-1.303-.329-1.732zM8.095 14.725l8.469-4.327-5.274 5.604a.73.73 0 00-.177.326l-1.017 4.119-2.001-5.722zm3.327 6.803c-.035.032-.07.061-.106.088l.943-3.821 1.716 1.382-2.553 2.351zM24.38 4.703l-3.467 17.122c-.034.164-.14.545-.414.545-.136 0-.306-.074-.48-.208l-4.462-3.593-.002-.002-2.656-2.138 7.626-8.103a.732.732 0 00-.866-1.154L7.116 13.58l-4.449-1.273L23.823 4.23a1.08 1.08 0 01.376-.083c.045 0 .124.006.154.042.039.048.089.21.027.513z" fill="#437FC8"/></g><defs><clipPath id="clip0_88_700"><path fill="#fff" transform="translate(.873 .78)" d="M0 0h25v25H0z"/></clipPath></defs></svg>