<svg width="26" height="25" fill="none" xmlns="http://www.w3.org/2000/svg"><path d="M24.291 8.824a8.76 8.76 0 00-2.59-6.233A8.761 8.761 0 0015.467 0H10.24C7.891 0 5.677.92 4.006 2.591a8.762 8.762 0 00-2.591 6.233v4.11c0 1.818.555 3.567 1.604 5.058a8.854 8.854 0 003.623 2.994v2.36c0 1.22.683 1.654 1.268 1.654.418 0 .836-.206 1.244-.613l2.63-2.63h3.683a8.76 8.76 0 006.232-2.591 8.761 8.761 0 002.591-6.233v-4.11zm-8.823 11.468H11.48a.732.732 0 00-.518.214L8.12 23.351l-.011.011v-2.866a.732.732 0 00-.472-.683c-2.844-1.086-4.755-3.85-4.755-6.88v-4.11c0-1.956.768-3.802 2.162-5.196a7.306 7.306 0 015.197-2.162h5.228c1.956 0 3.802.768 5.196 2.162a7.305 7.305 0 012.162 5.197v4.11c0 4.057-3.3 7.358-7.358 7.358z" fill="#437FC8"/><path d="M14.801 11.98a.732.732 0 00-1.035 0l-.592.591-2.293-2.292.592-.592a.733.733 0 000-1.036L8.7 5.878a.732.732 0 00-1.035 0L5.722 7.819a2.697 2.697 0 000 3.81l6.102 6.102a2.676 2.676 0 001.905.786 2.68 2.68 0 001.905-.786l1.941-1.942a.733.733 0 000-1.035l-2.774-2.774zm-.203 4.715c-.23.23-.54.357-.87.357a1.22 1.22 0 01-.868-.357l-6.102-6.102a1.23 1.23 0 010-1.738l1.424-1.424L9.919 9.17l-.591.592a.733.733 0 000 1.036l3.328 3.328a.733.733 0 001.036 0l.592-.592 1.737 1.738-1.423 1.424zM13.031 3.24a.732.732 0 100 1.465c1.677 0 3.253.653 4.438 1.838a6.233 6.233 0 011.838 4.438.732.732 0 101.465 0 7.69 7.69 0 00-2.267-5.474 7.69 7.69 0 00-5.473-2.267z" fill="#437FC8"/><path d="M16.17 10.98a.733.733 0 001.464 0 4.608 4.608 0 00-4.603-4.602.732.732 0 100 1.465 3.141 3.141 0 013.138 3.137z" fill="#437FC8"/></svg>